<svg id="Layer_1" data-name="Layer 1" xmlns="http://www.w3.org/2000/svg" width="211.91" height="551.91" viewBox="0 0 211.91 551.91"><path d="M127.33,2.24c-1.53,2.28-5,16.21-6,19.89-5.65,20.87-9.08,45.45-12,67.25-2.31,15.32-3.49,29.24-5,43.69-3.8,35.46-5.87,73.35-7.64,108.92-.51,23.15-2.58,87-2.08,95.92,0,2.94.2,4.88.28,7.54l2.79,91c1,12.93,3.38,46.16,8.54,55.34,1-3.44-.51-13-.77-17.44l-4.07-144.69c0-3.45-.08-5.15-.06-8.39,0-6.13.19-11.15.19-17.21l2.07-84.19,0-3.55c-.24-6.41.25-3.46.33-6.48.06-2.23-.44-1.15.44-3.35.51-8.52.77-17.66,1.35-26.28,1.78-26.19,3.48-51.6,6.19-77.56,3.86-36.84,7.73-65.09,16.68-101.2L128.86,0a6.65,6.65,0,0,0-1.53,2.24" fill="#2d7322" fill-rule="evenodd"/><path d="M109.08,36.35c-.52,2.4-.74,4.1-1.28,6.38-5.11,21.41-9.4,56.2-12.46,78.26-1.93,13.92-2.75,26-4.25,39.13-1.88,16.53-3.19,35.12-4.56,52.11-.39,4.92-.43,8.54-.89,13.41L84.07,273.9l-1,42.49.11,26.08,2.7,58.89,2.08,22c.43,1.32,1.39,9.31,3.06,9.76-.58-7.19-.82-14.23-1.29-21.34l-1.29-57.4c-.07-4.76,0-8.77,0-14,0-5,.13-19.72.1-25.07l4.24-115.09c0-2.27.13-5.34.18-6l.12-2.76c0-.14,0-.33,0-.47l6.28-69.87L102.84,92c1.49-12.17,4.19-32.45,6.57-44,2.9-14,4.45-25.12,8.35-40.09.4-1.54,1.13-3.83,1.49-5.5,0-1.46-.1-.88-1.11.53-1,.63-8.13,29.82-9.06,33.4" fill="#cc182c" fill-rule="evenodd"/><path d="M119.13,104.81l4.42-49.56c4.25-.53,3.06-1.43,8.31,0-3.72,48-7.39,84.52-8.22,126.38,6.55,4.83,25.34,6.91,50.53,27.75a111.73,111.73,0,0,1,10.11,10.19l.53.59.25.31,4.44,6.2c10.5,15.1,16.94,31.43,17.81,51.89.56,13.28-.92,30.28-5.88,42.68-4.09,10.6-8.69,17.81-16.29,28.16C174.29,364.14,164,379,170.8,392.51c5.69,11.3,20.55,17.27,32,11.62-1.42,4.29-2.63,4.53-2.86,10.49a43.5,43.5,0,0,0,1.54,11.8c1.69,7.16,4.37,13.37,6.26,20.34,9.68,35.75,2.69,65-23.93,89.69-4,3.72-19.16,15.38-24,15.45,2.64.34,15-12.81,17.68-16.44.76-1.05,1-1.53,1.58-2.35l10-15.66c9.49-18.36,13.23-42,7.14-62-3.19-10.55-7.4-20.76-13.66-29.25-1.69-2.29-2.45-3.28-3.77-5.25-4.6-6.84-9.82-11.4-14.21-20.44-6.9-14.24-7.77-26-.55-40.35,4.06-8,8.7-14.65,13.29-21.95,19.85-31.57,23.58-69.66,5.16-102.3-4.84-8.5-11.88-18.41-22.2-25.58-16.6-11.64-28-10.2-36.08-.82-7.32,8.46-9.83,41.53-15.41,65l1.85-61.88,3.45-50.32Z" fill="#12100b" fill-rule="evenodd"/><path d="M35.75,452.4a139.48,139.48,0,0,1-1.48,15.79,124.52,124.52,0,0,1-3,14.08,71.77,71.77,0,0,1-3.12,9.09c-1.32,3.22-3.17,7.42-5.41,11.64A121.52,121.52,0,0,1,15,515.54c-2.84,4.06-5.9,7.93-8.57,11.28S1.47,533,.49,534.33s-.67,1.18,2.67-1.39,9.7-7.57,15-12.51a108.55,108.55,0,0,0,13.24-15,119,119,0,0,0,10-15.85,109.38,109.38,0,0,0,6.51-15.39,87.83,87.83,0,0,0,3.24-12.52,115.55,115.55,0,0,0,1.67-12.62,84.29,84.29,0,0,0,0-12.61,110.25,110.25,0,0,0-1.87-13.74,80.29,80.29,0,0,0-3.6-12.49,75.52,75.52,0,0,0-5.75-12.07,123.07,123.07,0,0,0-8.29-11.94c-3-3.88-6-7.6-8.09-10.36a30.85,30.85,0,0,1-4.08-7,53.27,53.27,0,0,1-2.76-8.47,44.82,44.82,0,0,1-1.12-8.7,46.74,46.74,0,0,1,.51-8.4,57.39,57.39,0,0,1,2.15-9.07,76.51,76.51,0,0,1,3.84-9.53c1.47-3,3.07-5.8,4-7.32a24.53,24.53,0,0,1,2-3.08c1-1.29,2.7-3.59,4.55-5.78a82.83,82.83,0,0,1,5.91-6.27,88.71,88.71,0,0,1,6.89-5.89c2.48-1.91,5.17-3.77,7.67-5.32a62.39,62.39,0,0,1,6.51-3.54A19.38,19.38,0,0,0,64,286.28a8.09,8.09,0,0,0-2.31.05c-1,.1-1.88.2-2.87.37a31.83,31.83,0,0,0-3.51.78,35,35,0,0,0-5,1.81,67.29,67.29,0,0,0-6.63,3.47,78.46,78.46,0,0,0-6.83,4.54,87.28,87.28,0,0,0-7.07,5.78,105,105,0,0,0-7.52,7.54,95.47,95.47,0,0,0-6.91,8.67,87.89,87.89,0,0,0-5.64,9.11,76.63,76.63,0,0,0-4,8.71,55.18,55.18,0,0,0-2.47,8.19,81.11,81.11,0,0,0-1.51,9.54,50.62,50.62,0,0,0,0,9.13,71,71,0,0,0,1.52,9.74,66.62,66.62,0,0,0,2.68,8.87,59.6,59.6,0,0,0,3.77,8c1.55,2.73,3.46,5.7,4.93,8a25.26,25.26,0,0,1,3.22,6.24c.73,2.28,1.14,5.18.24,7.43s-3.13,3.84-2.82,4.56,3.16.56,6,1.89a22.51,22.51,0,0,1,7.85,7,28.56,28.56,0,0,1,4.2,8.44,53.64,53.64,0,0,1,2,8.52,50.92,50.92,0,0,1,.48,9.81" fill="#878787" fill-rule="evenodd"/></svg>